<svg width="1005.9500732421875px" height="121.39999999999999px" xmlns="http://www.w3.org/2000/svg" viewBox="-252.97503662109375 14.300000000000004 1005.9500732421875 121.39999999999999" style="background: rgb(21, 30, 47);" preserveAspectRatio="xMidYMid"><defs><filter id="editing-vintage" x="-100%" y="-100%" width="300%" height="300%"><feConvolveMatrix in="SourceGraphic" result="extrude" order="9,9" divisor="1" kernelMatrix="1,0,0,0,0,0,0,0,0,0,1,0,0,0,0,0,0,0,0,0,1,0,0,0,0,0,0,0,0,0,1,0,0,0,0,0,0,0,0,0,1,0,0,0,0,0,0,0,0,0,1,0,0,0,0,0,0,0,0,0,1,0,0,0,0,0,0,0,0,0,1,0,0,0,0,0,0,0,0,0,1"> </feConvolveMatrix><feFlood flood-color="#feeb54" result="flood-extrude"></feFlood><feComposite operator="in" in="flood-extrude" in2="extrude" result="extrude-color"></feComposite><feOffset dx="5" dy="5" in="extrude-color" result="extrude-offset"></feOffset><feColorMatrix in="SourceGraphic" result="stroke" type="matrix" values="0 0 0 0 0 0 0 0 0 0 0 0 0 0 0 0 1 0 0 0 "></feColorMatrix><feColorMatrix in="SourceGraphic" result="fill" type="matrix" values="0 0 0 0 0 0 0 0 0 0 0 0 0 0 0 1 0 0 1 0 "></feColorMatrix><feConvolveMatrix in="stroke" result="inner-shadow" order="5,5" divisor="1" kernelMatrix="1 0 0 0 0 0 1 0 0 0 0 0 1 0 0 0 0 0 1 0 0 0 0 0 1 "></feConvolveMatrix><feOffset dx="1" dy="1" in="inner-shadow" result="offset"></feOffset><feComposite operator="in" in="offset" in2="SourceAlpha" result="comp"></feComposite><feFlood flood-color="#a3945d" result="flood3"></feFlood><feComposite operator="in" in="flood3" in2="comp" result="comp2"></feComposite><feColorMatrix in="comp2" result="comp3" type="matrix" values="1 0 0 0 0 0 1 0 0 0 0 0 1 0 0 0 0 0 0.5 0 "></feColorMatrix><feFlood flood-color="#2a3e83" result="flood1"></feFlood><feComposite operator="in" in="flood1" in2="fill" result="fill2"></feComposite><feFlood flood-color="#fff" result="flood2"></feFlood><feComposite operator="in" in="flood2" in2="stroke" result="stroke2"></feComposite><feMerge result="obj"><feMergeNode in="extrude-offset"></feMergeNode><feMergeNode in="fill2"></feMergeNode><feMergeNode in="comp3"></feMergeNode></feMerge><feConvolveMatrix in="SourceAlpha" result="shadow" order="9,9" divisor="1" kernelMatrix="1,0,0,0,0,0,0,0,0,0,1,0,0,0,0,0,0,0,0,0,1,0,0,0,0,0,0,0,0,0,1,0,0,0,0,0,0,0,0,0,1,0,0,0,0,0,0,0,0,0,1,0,0,0,0,0,0,0,0,0,1,0,0,0,0,0,0,0,0,0,1,0,0,0,0,0,0,0,0,0,1"></feConvolveMatrix><feOffset dx="15" dy="15" in="shadow" result="shadow-offset"></feOffset><feFlood flood-color="#6d82b1" result="flood-shadow"></feFlood><feComposite operator="in" in="flood-shadow" in2="shadow-offset" result="shadow-color"></feComposite><feMerge><feMergeNode in="shadow-color"></feMergeNode><feMergeNode in="obj"></feMergeNode></feMerge></filter></defs><g transform="translate(-9,-9)"><g filter="url(#editing-vintage)"><g transform="translate(-112.04501619935036, 104.76000022888184)"><path d="M14.62 0.16L14.62 0.16L14.62 0.16Q11.20-0.45 9.41-0.70L9.41-0.70L9.41-0.70Q7.62-0.96 5.73-0.96L5.73-0.96L5.73-0.96Q3.84-0.96 2.88 0L2.88 0L2.88 0Q1.41-1.09 0.64-4.54L0.64-4.54L0.64-4.54Q0.38-5.50 0.38-7.10L0.38-7.10L0.38-7.10Q0.38-10.56 4.35-13.95L4.35-13.95L24.32-30.34L24.32-30.34Q16.06-31.68 12.74-31.68L12.74-31.68L12.74-31.68Q9.41-31.68 6.34-30.21L6.34-30.21L6.34-30.21Q4.61-33.02 4.61-36.29L4.61-36.29L4.61-36.29Q4.61-39.55 7.01-41.22L7.01-41.22L7.01-41.22Q9.41-42.88 13.44-42.88L13.44-42.88L13.44-42.88Q15.23-42.88 17.15-42.62L17.15-42.62L17.15-42.62Q19.07-42.37 20.99-42.11L20.99-42.11L24.77-41.54L24.77-41.54Q26.62-41.28 29.02-41.28L29.02-41.28L29.02-41.28Q31.42-41.28 34.11-41.92L34.11-41.92L34.11-41.92Q36.67-39.68 36.67-35.97L36.67-35.97L36.67-35.97Q36.67-31.49 33.60-29.06L33.60-29.06L11.84-11.65L11.84-11.65Q16.51-10.37 24.26-10.37L24.26-10.37L24.26-10.37Q28.10-10.37 30.53-12.29L30.53-12.29L30.53-12.29Q31.62-10.88 31.90-9.70L31.90-9.70L31.90-9.70Q32.19-8.51 32.19-6.82L32.19-6.82L32.19-6.82Q32.19-5.12 31.62-3.74L31.62-3.74L31.62-3.74Q31.04-2.37 29.82-1.34L29.82-1.34L29.82-1.34Q27.39 0.77 22.02 0.77L22.02 0.77L22.02 0.77Q18.05 0.77 14.62 0.16ZM51.97 1.28L51.97 1.28L51.97 1.28Q37.89 1.28 37.89-11.97L37.89-11.97L37.89-11.97Q37.89-21.38 43.07-27.46L43.07-27.46L43.07-27.46Q48.58-33.92 58.11-33.92L58.11-33.92L58.11-33.92Q65.02-33.92 68.54-30.72L68.54-30.72L68.54-30.72Q72.06-27.52 72.06-20.80L72.06-20.80L72.06-20.80Q72.06-10.56 66.56-4.61L66.56-4.61L66.56-4.61Q61.18 1.28 51.97 1.28ZM53.63-26.56L53.63-26.56L53.63-26.56Q52.86-24.83 52.26-22.24L52.26-22.24L52.26-22.24Q51.65-19.65 50.88-15.55L50.88-15.55L50.88-15.55Q50.11-11.46 50.11-6.40L50.11-6.40L50.11-6.40Q50.11-4.74 50.66-3.65L50.66-3.65L50.66-3.65Q51.20-2.56 52.67-2.56L52.67-2.56L52.67-2.56Q54.14-2.56 55.07-3.26L55.07-3.26L55.07-3.26Q56-3.97 56.70-5.63L56.70-5.63L56.70-5.63Q57.98-8.58 59.01-14.05L59.01-14.05L59.01-14.05Q60.03-19.52 60.13-21.89L60.13-21.89L60.13-21.89Q60.22-24.26 60.22-26.02L60.22-26.02L60.22-26.02Q60.22-27.78 59.71-28.93L59.71-28.93L59.71-28.93Q59.20-30.08 57.76-30.08L57.76-30.08L57.76-30.08Q56.32-30.08 55.36-29.18L55.36-29.18L55.36-29.18Q54.40-28.29 53.63-26.56ZM101.76-10.82L101.76-10.82L101.76-10.82Q103.36-9.73 103.36-7.33L103.36-7.33L103.36-7.33Q103.36-4.93 102.14-3.39L102.14-3.39L102.14-3.39Q100.93-1.86 98.94-0.83L98.94-0.83L98.94-0.83Q94.85 1.28 90.43 1.28L90.43 1.28L90.43 1.28Q86.02 1.28 83.42 0.32L83.42 0.32L83.42 0.32Q80.83-0.64 79.10-2.43L79.10-2.43L79.10-2.43Q75.71-5.82 75.71-12.03L75.71-12.03L75.71-12.03Q75.71-21.70 80.96-27.58L80.96-27.58L80.96-27.58Q86.59-33.92 96.38-33.92L96.38-33.92L96.38-33.92Q102.46-33.92 105.47-31.36L105.47-31.36L105.47-31.36Q107.71-29.44 107.71-26.30L107.71-26.30L107.71-26.30Q107.71-15.04 88.26-15.04L88.26-15.04L88.26-15.04Q88-13.38 88-11.97L88-11.97L88-11.97Q88-9.02 89.31-7.90L89.31-7.90L89.31-7.90Q90.62-6.78 93.06-6.78L93.06-6.78L93.06-6.78Q95.49-6.78 98.08-7.90L98.08-7.90L98.08-7.90Q100.67-9.02 101.76-10.82ZM88.70-17.79L88.70-17.79L88.70-17.79Q93.25-17.79 95.87-20.61L95.87-20.61L95.87-20.61Q98.50-23.30 98.50-27.58L98.50-27.58L98.50-27.58Q98.50-29.06 97.95-29.86L97.95-29.86L97.95-29.86Q97.41-30.66 96.32-30.66L96.32-30.66L96.32-30.66Q95.23-30.66 94.30-30.24L94.30-30.24L94.30-30.24Q93.38-29.82 92.42-28.42L92.42-28.42L92.42-28.42Q90.05-25.22 88.70-17.79ZM126.40-30.34L126.40-30.34L126.40-30.34Q129.86-33.92 137.15-33.92L137.15-33.92L137.15-33.92Q141.18-33.92 143.39-31.78L143.39-31.78L143.39-31.78Q145.60-29.63 145.60-25.70L145.60-25.70L145.60-25.70Q145.60-21.76 143.39-18.98L143.39-18.98L143.39-18.98Q141.18-16.19 137.09-15.04L137.09-15.04L137.09-15.04Q137.41-13.76 137.86-12.42L137.86-12.42L138.75-9.86L138.75-9.86Q139.97-6.59 140.93-5.44L140.93-5.44L140.93-5.44Q141.89-4.29 143.17-3.90L143.17-3.90L143.17-3.90Q142.46-1.28 139.90 0.13L139.90 0.13L139.90 0.13Q137.86 1.28 135.04 1.28L135.04 1.28L135.04 1.28Q126.78 1.28 125.70-11.46L125.70-11.46L125.70-11.46Q125.50-13.25 125.50-15.04L125.50-15.04L125.50-15.04Q128.70-15.94 130.94-18.94L130.94-18.94L130.94-18.94Q133.18-21.95 133.18-25.47L133.18-25.47L133.18-25.47Q133.18-28.99 130.69-28.99L130.69-28.99L130.69-28.99Q128.90-28.99 127.49-27.01L127.49-27.01L127.49-27.01Q126.08-25.02 125.44-21.63L125.44-21.63L121.22 0L108.29 1.28L117.25-44.80L130.11-46.08L128.64-38.46L128.64-38.46Q127.68-33.09 126.40-30.34ZM174.46-10.82L174.46-10.82L174.46-10.82Q176.06-9.73 176.06-7.33L176.06-7.33L176.06-7.33Q176.06-4.93 174.85-3.39L174.85-3.39L174.85-3.39Q173.63-1.86 171.65-0.83L171.65-0.83L171.65-0.83Q167.55 1.28 163.14 1.28L163.14 1.28L163.14 1.28Q158.72 1.28 156.13 0.32L156.13 0.32L156.13 0.32Q153.54-0.64 151.81-2.43L151.81-2.43L151.81-2.43Q148.42-5.82 148.42-12.03L148.42-12.03L148.42-12.03Q148.42-21.70 153.66-27.58L153.66-27.58L153.66-27.58Q159.30-33.92 169.09-33.92L169.09-33.92L169.09-33.92Q175.17-33.92 178.18-31.36L178.18-31.36L178.18-31.36Q180.42-29.44 180.42-26.30L180.42-26.30L180.42-26.30Q180.42-15.04 160.96-15.04L160.96-15.04L160.96-15.04Q160.70-13.38 160.70-11.97L160.70-11.97L160.70-11.97Q160.70-9.02 162.02-7.90L162.02-7.90L162.02-7.90Q163.33-6.78 165.76-6.78L165.76-6.78L165.76-6.78Q168.19-6.78 170.78-7.90L170.78-7.90L170.78-7.90Q173.38-9.02 174.46-10.82ZM161.41-17.79L161.41-17.79L161.41-17.79Q165.95-17.79 168.58-20.61L168.58-20.61L168.58-20.61Q171.20-23.30 171.20-27.58L171.20-27.58L171.20-27.58Q171.20-29.06 170.66-29.86L170.66-29.86L170.66-29.86Q170.11-30.66 169.02-30.66L169.02-30.66L169.02-30.66Q167.94-30.66 167.01-30.24L167.01-30.24L167.01-30.24Q166.08-29.82 165.12-28.42L165.12-28.42L165.12-28.42Q162.75-25.22 161.41-17.79ZM209.66 1.28L209.66 1.28L209.66 1.28Q201.92 1.28 201.92-4.74L201.92-4.74L201.92-4.74Q201.98-6.40 202.50-9.22L202.50-9.22L203.65-15.10L203.65-15.10Q205.38-23.42 205.38-25.28L205.38-25.28L205.38-25.28Q205.38-28.99 203.20-28.99L203.20-28.99L203.20-28.99Q199.55-28.99 197.63-19.46L197.63-19.46L193.86 0L180.99 1.28L187.65-32.70L198.14-33.92L197.12-27.65L197.12-27.65Q200.13-33.92 209.34-33.92L209.34-33.92L209.34-33.92Q213.82-33.92 215.71-32.03L215.71-32.03L215.71-32.03Q217.60-30.14 217.60-25.92L217.60-25.92L217.60-25.92Q217.60-21.95 215.55-12.67L215.55-12.67L215.55-12.67Q214.59-8.51 214.59-6.94L214.59-6.94L214.59-6.94Q214.59-5.38 215.46-4.48L215.46-4.48L215.46-4.48Q216.32-3.58 217.60-3.46L217.60-3.46L217.60-3.46Q216.96-1.28 214.75 0L214.75 0L214.75 0Q212.54 1.28 209.66 1.28ZM277.44-26.56L277.44-26.56L277.44-26.56Q277.44 0.70 247.87 0.70L247.87 0.70L247.87 0.70Q243.14 0.70 235.33-0.45L235.33-0.45L242.50-38.27L242.50-38.27Q243.01-40.83 243.33-42.30L243.33-42.30L243.33-42.30Q253.06-43.01 257.38-43.01L257.38-43.01L257.38-43.01Q261.70-43.01 265.66-42.11L265.66-42.11L265.66-42.11Q269.63-41.22 272.26-39.23L272.26-39.23L272.26-39.23Q277.44-35.33 277.44-26.56ZM264.26-28.93L264.26-28.93L264.26-28.93Q264.26-38.46 257.41-38.46L257.41-38.46L256.77-38.46L256.77-38.46Q256.45-38.46 256.13-38.40L256.13-38.40L249.54-4.03L249.54-4.03Q249.79-3.90 250.05-3.90L250.05-3.90L250.56-3.90L250.56-3.90Q252.93-3.90 255.39-5.38L255.39-5.38L255.39-5.38Q257.86-6.85 259.78-9.86L259.78-9.86L259.78-9.86Q264.26-16.83 264.26-28.93ZM296.06-3.52L296.06-3.52L296.06-3.52Q294.08 1.28 287.74 1.28L287.74 1.28L287.74 1.28Q284.48 1.28 282.43-0.96L282.43-0.96L282.43-0.96Q280.70-2.94 280.70-4.93L280.70-4.93L280.70-4.93Q280.70-10.11 283.07-20.22L283.07-20.22L285.44-32.64L298.43-33.92L294.53-13.70L294.53-13.70Q293.44-8.96 293.44-7.30L293.44-7.30L293.44-7.30Q293.44-3.65 296.06-3.52ZM286.59-41.54L286.59-41.54L286.59-41.54Q286.59-44.03 288.67-45.38L288.67-45.38L288.67-45.38Q290.75-46.72 293.76-46.72L293.76-46.72L293.76-46.72Q296.77-46.72 298.59-45.38L298.59-45.38L298.59-45.38Q300.42-44.03 300.42-41.54L300.42-41.54L300.42-41.54Q300.42-39.04 298.40-37.76L298.40-37.76L298.40-37.76Q296.38-36.48 293.38-36.48L293.38-36.48L293.38-36.48Q290.37-36.48 288.48-37.76L288.48-37.76L288.48-37.76Q286.59-39.04 286.59-41.54ZM306.05-26.75L306.05-26.75L306.05-26.75Q308.22-29.82 311.52-31.87L311.52-31.87L311.52-31.87Q314.82-33.92 318.85-33.92L318.85-33.92L318.85-33.92Q322.88-33.92 324.80-32.64L324.80-32.64L337.34-33.92L332.99-9.34L332.99-9.34Q330.75 3.20 326.02 8.13L326.02 8.13L326.02 8.13Q321.47 12.80 312.64 12.80L312.64 12.80L312.64 12.80Q305.92 12.80 302.08 10.69L302.08 10.69L302.08 10.69Q298.24 8.58 298.24 5.06L298.24 5.06L298.24 5.06Q298.24 2.43 300.22 0.93L300.22 0.93L300.22 0.93Q302.21-0.58 305.28-0.58L305.28-0.58L305.28-0.58Q307.97-0.58 310.02 0.64L310.02 0.64L310.02 0.64Q311.23 1.28 311.81 2.18L311.81 2.18L311.81 2.18Q310.34 3.46 310.34 5.57L310.34 5.57L310.34 5.57Q310.34 8.32 312.90 8.32L312.90 8.32L312.90 8.32Q317.18 8.32 319.62-1.79L319.62-1.79L319.62-1.79Q320.32-4.54 320.90-7.30L320.90-7.30L320.90-7.30Q318.02-3.78 311.49-3.78L311.49-3.78L311.49-3.78Q306.94-3.78 304.32-5.95L304.32-5.95L304.32-5.95Q301.70-8.13 301.70-13.25L301.70-13.25L301.70-13.25Q301.70-16.45 302.78-20.06L302.78-20.06L302.78-20.06Q303.87-23.68 306.05-26.75ZM314.37-13.06L314.37-13.06L314.37-13.06Q314.37-8.70 316.61-8.70L316.61-8.70L316.61-8.70Q318.14-8.70 319.62-10.37L319.62-10.37L319.62-10.37Q320.77-11.71 321.22-13.70L321.22-13.70L324.48-30.14L324.48-30.14Q324.16-30.21 323.84-30.34L323.84-30.34L323.84-30.34Q323.20-30.59 322.37-30.59L322.37-30.59L322.37-30.59Q318.46-30.59 316.16-24.19L316.16-24.19L316.16-24.19Q314.37-19.20 314.37-13.06ZM355.20-3.52L355.20-3.52L355.20-3.52Q353.22 1.28 346.88 1.28L346.88 1.28L346.88 1.28Q343.62 1.28 341.57-0.96L341.57-0.96L341.57-0.96Q339.84-2.94 339.84-4.93L339.84-4.93L339.84-4.93Q339.84-10.11 342.21-20.22L342.21-20.22L344.58-32.64L357.57-33.92L353.66-13.70L353.66-13.70Q352.58-8.96 352.58-7.30L352.58-7.30L352.58-7.30Q352.58-3.65 355.20-3.52ZM345.73-41.54L345.73-41.54L345.73-41.54Q345.73-44.03 347.81-45.38L347.81-45.38L347.81-45.38Q349.89-46.72 352.90-46.72L352.90-46.72L352.90-46.72Q355.90-46.72 357.73-45.38L357.73-45.38L357.73-45.38Q359.55-44.03 359.55-41.54L359.55-41.54L359.55-41.54Q359.55-39.04 357.54-37.76L357.54-37.76L357.54-37.76Q355.52-36.48 352.51-36.48L352.51-36.48L352.51-36.48Q349.50-36.48 347.62-37.76L347.62-37.76L347.62-37.76Q345.73-39.04 345.73-41.54ZM361.66-6.40L361.66-6.40L361.66-6.40Q361.66-8.13 362.56-12.48L362.56-12.48L365.95-29.76L362.18-29.76L362.43-31.68L362.43-31.68Q370.11-33.98 377.54-39.62L377.54-39.62L380.61-39.62L379.07-32.64L384.06-32.64L383.49-29.76L378.56-29.76L375.30-12.48L375.30-12.48Q374.46-8.51 374.46-7.17L374.46-7.17L374.46-7.17Q374.46-4.10 377.15-3.46L377.15-3.46L377.15-3.46Q376.51-1.28 374.21 0L374.21 0L374.21 0Q371.90 1.28 368.64 1.28L368.64 1.28L368.64 1.28Q365.38 1.28 363.52-0.77L363.52-0.77L363.52-0.77Q361.66-2.82 361.66-6.40ZM386.27-1.92L386.27-1.92L386.27-1.92Q384.77-3.58 384.10-6.21L384.10-6.21L384.10-6.21Q383.42-8.83 383.42-13.12L383.42-13.12L383.42-13.12Q383.42-17.41 384.90-21.31L384.90-21.31L384.90-21.31Q386.37-25.22 389.06-28.03L389.06-28.03L389.06-28.03Q394.56-33.92 403.65-33.92L403.65-33.92L403.65-33.92Q406.91-33.92 409.28-32.83L409.28-32.83L420.22-33.92L415.49-8.96L415.49-8.96Q415.30-8.19 415.30-6.78L415.30-6.78L415.30-6.78Q415.30-5.38 416.16-4.48L416.16-4.48L416.16-4.48Q417.02-3.58 418.30-3.46L418.30-3.46L418.30-3.46Q417.66-1.28 415.33 0L415.33 0L415.33 0Q412.99 1.28 410.37 1.28L410.37 1.28L410.37 1.28Q407.74 1.28 405.98 0.29L405.98 0.29L405.98 0.29Q404.22-0.70 403.71-2.37L403.71-2.37L403.71-2.37Q402.69-0.77 400.51 0.26L400.51 0.26L400.51 0.26Q398.34 1.28 395.42 1.28L395.42 1.28L395.42 1.28Q392.51 1.28 390.14 0.51L390.14 0.51L390.14 0.51Q387.78-0.26 386.27-1.92ZM399.78-27.90L399.78-27.90L399.78-27.90Q399.04-26.75 398.40-24.80L398.40-24.80L398.40-24.80Q397.76-22.85 396.70-17.63L396.70-17.63L396.70-17.63Q395.65-12.42 395.65-8.70L395.65-8.70L395.65-8.70Q395.65-4.99 396.22-3.90L396.22-3.90L396.22-3.90Q396.80-2.82 397.82-2.82L397.82-2.82L397.82-2.82Q399.87-2.82 401.38-4.77L401.38-4.77L401.38-4.77Q402.88-6.72 403.46-10.18L403.46-10.18L406.85-28.93L406.85-28.93Q405.50-30.08 403.94-30.08L403.94-30.08L403.94-30.08Q402.37-30.08 401.44-29.57L401.44-29.57L401.44-29.57Q400.51-29.06 399.78-27.90ZM426.21-1.92L426.21-1.92L426.21-1.92Q424.70-3.58 424.03-6.21L424.03-6.21L424.03-6.21Q423.36-8.83 423.36-13.12L423.36-13.12L423.36-13.12Q423.36-17.41 424.83-21.31L424.83-21.31L424.83-21.31Q426.30-25.22 428.99-28.03L428.99-28.03L428.99-28.03Q434.50-33.92 443.58-33.92L443.58-33.92L443.58-33.92Q446.85-33.92 449.22-32.83L449.22-32.83L460.16-33.92L455.42-8.96L455.42-8.96Q455.23-8.19 455.23-6.78L455.23-6.78L455.23-6.78Q455.23-5.38 456.10-4.48L456.10-4.48L456.10-4.48Q456.96-3.58 458.24-3.46L458.24-3.46L458.24-3.46Q457.60-1.28 455.26 0L455.26 0L455.26 0Q452.93 1.28 450.30 1.28L450.30 1.28L450.30 1.28Q447.68 1.28 445.92 0.29L445.92 0.29L445.92 0.29Q444.16-0.70 443.65-2.37L443.65-2.37L443.65-2.37Q442.62-0.77 440.45 0.26L440.45 0.26L440.45 0.26Q438.27 1.28 435.36 1.28L435.36 1.28L435.36 1.28Q432.45 1.28 430.08 0.51L430.08 0.51L430.08 0.51Q427.71-0.26 426.21-1.92ZM439.71-27.90L439.71-27.90L439.71-27.90Q438.98-26.75 438.34-24.80L438.34-24.80L438.34-24.80Q437.70-22.85 436.64-17.63L436.64-17.63L436.64-17.63Q435.58-12.42 435.58-8.70L435.58-8.70L435.58-8.70Q435.58-4.99 436.16-3.90L436.16-3.90L436.16-3.90Q436.74-2.82 437.76-2.82L437.76-2.82L437.76-2.82Q439.81-2.82 441.31-4.77L441.31-4.77L441.31-4.77Q442.82-6.72 443.39-10.18L443.39-10.18L446.78-28.93L446.78-28.93Q445.44-30.08 443.87-30.08L443.87-30.08L443.87-30.08Q442.30-30.08 441.38-29.57L441.38-29.57L441.38-29.57Q440.45-29.06 439.71-27.90ZM478.91-3.52L478.91-3.52L478.91-3.52Q476.93 1.28 470.59 1.28L470.59 1.28L470.59 1.28Q467.39 1.28 465.34-0.96L465.34-0.96L465.34-0.96Q463.68-2.82 463.68-4.93L463.68-4.93L463.68-4.93Q463.68-9.73 465.92-20.22L465.92-20.22L470.59-44.80L483.58-46.08L477.38-13.70L477.38-13.70Q476.29-8.96 476.29-7.30L476.29-7.30L476.29-7.30Q476.29-3.65 478.91-3.52ZM504.13 0L497.09 0L504.77-42.24L518.53-42.24L528.51-13.18L533.82-42.24L540.93-42.18L533.12 0L518.46 0L509.25-27.97L504.13 0ZM557.89-3.52L557.89-3.52L557.89-3.52Q555.90 1.28 549.57 1.28L549.57 1.28L549.57 1.28Q546.30 1.28 544.26-0.96L544.26-0.96L544.26-0.96Q542.53-2.94 542.53-4.93L542.53-4.93L542.53-4.93Q542.53-10.11 544.90-20.22L544.90-20.22L547.26-32.64L560.26-33.92L556.35-13.70L556.35-13.70Q555.26-8.96 555.26-7.30L555.26-7.30L555.26-7.30Q555.26-3.65 557.89-3.52ZM548.42-41.54L548.42-41.54L548.42-41.54Q548.42-44.03 550.50-45.38L550.50-45.38L550.50-45.38Q552.58-46.72 555.58-46.72L555.58-46.72L555.58-46.72Q558.59-46.72 560.42-45.38L560.42-45.38L560.42-45.38Q562.24-44.03 562.24-41.54L562.24-41.54L562.24-41.54Q562.24-39.04 560.22-37.76L560.22-37.76L560.22-37.76Q558.21-36.48 555.20-36.48L555.20-36.48L555.20-36.48Q552.19-36.48 550.30-37.76L550.30-37.76L550.30-37.76Q548.42-39.04 548.42-41.54ZM589.25-10.82L589.25-10.82L589.25-10.82Q590.85-9.73 590.85-7.33L590.85-7.33L590.85-7.33Q590.85-4.93 589.63-3.39L589.63-3.39L589.63-3.39Q588.42-1.86 586.43-0.83L586.43-0.83L586.43-0.83Q582.34 1.28 577.92 1.28L577.92 1.28L577.92 1.28Q573.50 1.28 570.91 0.32L570.91 0.32L570.91 0.32Q568.32-0.64 566.59-2.43L566.59-2.43L566.59-2.43Q563.20-5.82 563.20-12.03L563.20-12.03L563.20-12.03Q563.20-21.70 568.45-27.58L568.45-27.58L568.45-27.58Q574.08-33.92 583.87-33.92L583.87-33.92L583.87-33.92Q589.95-33.92 592.96-31.36L592.96-31.36L592.96-31.36Q595.20-29.44 595.20-26.30L595.20-26.30L595.20-26.30Q595.20-15.04 575.74-15.04L575.74-15.04L575.74-15.04Q575.49-13.38 575.49-11.97L575.49-11.97L575.49-11.97Q575.49-9.02 576.80-7.90L576.80-7.90L576.80-7.90Q578.11-6.78 580.54-6.78L580.54-6.78L580.54-6.78Q582.98-6.78 585.57-7.90L585.57-7.90L585.57-7.90Q588.16-9.02 589.25-10.82ZM576.19-17.79L576.19-17.79L576.19-17.79Q580.74-17.79 583.36-20.61L583.36-20.61L583.36-20.61Q585.98-23.30 585.98-27.58L585.98-27.58L585.98-27.58Q585.98-29.06 585.44-29.86L585.44-29.86L585.44-29.86Q584.90-30.66 583.81-30.66L583.81-30.66L583.81-30.66Q582.72-30.66 581.79-30.24L581.79-30.24L581.79-30.24Q580.86-29.82 579.90-28.42L579.90-28.42L579.90-28.42Q577.54-25.22 576.19-17.79ZM617.92-2.69L617.92-2.69L617.92-2.69Q614.85 1.28 607.23 1.28L607.23 1.28L607.23 1.28Q603.26 1.28 600.38-1.12L600.38-1.12L600.38-1.12Q597.50-3.52 597.50-6.98L597.50-6.98L597.50-6.98Q597.50-8.90 597.70-9.86L597.70-9.86L601.98-32.64L614.98-33.92L610.30-9.22L610.30-9.22Q610.05-7.81 610.05-6.98L610.05-6.98L610.05-6.98Q610.05-3.26 612.29-3.26L612.29-3.26L612.29-3.26Q614.78-3.26 616.58-6.66L616.58-6.66L616.58-6.66Q617.15-7.74 617.41-9.15L617.41-9.15L621.95-32.64L634.56-33.92L629.82-8.96L629.82-8.96Q629.63-8 629.63-6.98L629.63-6.98L629.63-6.98Q629.63-5.95 630.21-4.83L630.21-4.83L630.21-4.83Q630.78-3.71 632.64-3.46L632.64-3.46L632.64-3.46Q632.26-1.92 630.91-0.90L630.91-0.90L630.91-0.90Q628.10 1.28 625.06 1.28L625.06 1.28L625.06 1.28Q622.02 1.28 620.22 0.19L620.22 0.19L620.22 0.19Q618.43-0.90 617.92-2.69ZM685.76-10.69L685.76-10.69Q681.54-4.86 677.47-1.79L677.47-1.79L677.47-1.79Q673.41 1.28 669.22 1.28L669.22 1.28L669.22 1.28Q665.02 1.28 663.55 0.45L663.55 0.45L663.55-13.63L663.55-13.63Q659.90-3.90 653.38-0.13L653.38-0.13L653.38-0.13Q651.01 1.28 648.77 1.28L648.77 1.28L648.77 1.28Q644.48 1.28 642.62 0.45L642.62 0.45L642.62 0.45Q642.18-14.21 641.79-18.27L641.79-18.27L641.79-18.27Q641.41-22.34 641.09-24.83L641.09-24.83L641.09-24.83Q640.45-29.82 638.27-31.87L638.27-31.87L638.27-31.87Q641.02-33.92 644.86-33.92L644.86-33.92L644.86-33.92Q652.29-33.92 653.31-24.70L653.31-24.70L653.31-24.70Q653.57-22.53 653.57-20.22L653.57-20.22L653.57-20.22Q653.57-16.77 652.80-4.74L652.80-4.74L652.80-4.74Q654.34-5.44 655.97-7.97L655.97-7.97L655.97-7.97Q657.60-10.50 658.94-13.95L658.94-13.95L658.94-13.95Q661.95-21.95 661.95-28.86L661.95-28.86L661.95-28.86Q661.95-29.95 661.66-31.10L661.66-31.10L661.66-31.10Q661.38-32.26 661.06-32.58L661.06-32.58L661.06-32.58Q663.30-33.92 666.72-33.92L666.72-33.92L666.72-33.92Q670.14-33.92 671.78-31.58L671.78-31.58L671.78-31.58Q673.41-29.25 673.86-24.96L673.86-24.96L673.86-24.96Q674.37-19.52 674.37-16.26L674.37-16.26L674.37-16.26Q674.37-11.71 673.92-4.99L673.92-4.99L673.92-4.99Q677.12-7.30 679.74-14.85L679.74-14.85L679.74-14.85Q682.37-22.40 682.37-27.78L682.37-27.78L682.37-27.78Q682.37-30.14 681.98-31.55L681.98-31.55L681.98-31.55Q684.10-33.92 687.74-33.92L687.74-33.92L687.74-33.92Q689.98-33.92 691.62-32.70L691.62-32.70L691.62-32.70Q693.25-31.49 693.25-29.22L693.25-29.22L693.25-29.22Q693.25-26.94 692.58-24.51L692.58-24.51L692.58-24.51Q691.90-22.08 690.82-19.58L690.82-19.58L690.82-19.58Q688.70-14.59 685.76-10.69L685.76-10.69ZM714.11-22.46L714.11-22.46L714.11-22.46Q715.01-24.83 715.01-26.88L715.01-26.88L715.01-26.88Q715.01-30.66 711.94-30.66L711.94-30.66L711.94-30.66Q710.34-30.66 709.02-29.22L709.02-29.22L709.02-29.22Q707.71-27.78 707.71-25.98L707.71-25.98L707.71-25.98Q707.71-24.70 708.74-23.68L708.74-23.68L708.74-23.68Q710.21-22.27 713.98-19.97L713.98-19.97L713.98-19.97Q717.76-17.66 719.20-15.78L719.20-15.78L719.20-15.78Q720.64-13.89 720.64-11.30L720.64-11.30L720.64-11.30Q720.64-8.70 719.39-6.34L719.39-6.34L719.39-6.34Q718.14-3.97 715.90-2.30L715.90-2.30L715.90-2.30Q711.10 1.28 703.42 1.28L703.42 1.28L703.42 1.28Q699.26 1.28 696.06-0.90L696.06-0.90L696.06-0.90Q692.86-3.01 692.86-5.50L692.86-5.50L692.86-5.50Q692.86-8 694.69-9.47L694.69-9.47L694.69-9.47Q696.51-10.94 699.20-10.94L699.20-10.94L699.20-10.94Q701.89-10.94 703.55-9.92L703.55-9.92L703.55-9.92Q702.72-7.81 702.72-6.40L702.72-6.40L702.72-6.40Q702.72-2.18 706.30-2.18L706.30-2.18L706.30-2.18Q707.84-2.18 708.86-3.14L708.86-3.14L708.86-3.14Q709.89-4.10 709.89-5.76L709.89-5.76L709.89-5.76Q709.89-9.02 704.38-12.48L704.38-12.48L704.38-12.48Q699.90-15.42 698.88-16.58L698.88-16.58L698.88-16.58Q697.15-18.62 697.15-21.18L697.15-21.18L697.15-21.18Q697.15-23.74 698.37-26.18L698.37-26.18L698.37-26.18Q699.58-28.61 701.82-30.34L701.82-30.34L701.82-30.34Q706.50-33.92 714.62-33.92L714.62-33.92L714.62-33.92Q718.78-33.92 721.25-32.26L721.25-32.26L721.25-32.26Q723.71-30.59 723.71-27.78L723.71-27.78L723.71-27.78Q723.71-24.96 722.02-23.36L722.02-23.36L722.02-23.36Q720.32-21.76 717.25-21.76L717.25-21.76L717.25-21.76Q715.14-21.76 714.11-22.46Z" fill="#f00" stroke="#0f0" stroke-width="1.8"></path></g></g><g><g transform="translate(-112.04500856995583, 104.75999641418457)"><path d="M14.62 0.16L14.62 0.16L14.62 0.16Q11.20-0.45 9.41-0.70L9.41-0.70L9.41-0.70Q7.62-0.96 5.73-0.96L5.73-0.96L5.73-0.96Q3.84-0.96 2.88 0L2.88 0L2.88 0Q1.41-1.09 0.64-4.54L0.64-4.54L0.64-4.54Q0.38-5.50 0.38-7.10L0.38-7.10L0.38-7.10Q0.38-10.56 4.35-13.95L4.35-13.95L24.32-30.34L24.32-30.34Q16.06-31.68 12.74-31.68L12.74-31.68L12.74-31.68Q9.41-31.68 6.34-30.21L6.34-30.21L6.34-30.21Q4.61-33.02 4.61-36.29L4.61-36.29L4.61-36.29Q4.61-39.55 7.01-41.22L7.01-41.22L7.01-41.22Q9.41-42.88 13.44-42.88L13.44-42.88L13.44-42.88Q15.23-42.88 17.15-42.62L17.15-42.62L17.15-42.62Q19.07-42.37 20.99-42.11L20.99-42.11L24.77-41.54L24.77-41.54Q26.62-41.28 29.02-41.28L29.02-41.28L29.02-41.28Q31.42-41.28 34.11-41.92L34.11-41.92L34.11-41.92Q36.67-39.68 36.67-35.97L36.67-35.97L36.67-35.97Q36.67-31.49 33.60-29.06L33.60-29.06L11.84-11.65L11.84-11.65Q16.51-10.37 24.26-10.37L24.26-10.37L24.26-10.37Q28.10-10.37 30.53-12.29L30.53-12.29L30.53-12.29Q31.62-10.88 31.90-9.70L31.90-9.70L31.90-9.70Q32.19-8.51 32.19-6.82L32.19-6.82L32.19-6.82Q32.19-5.12 31.62-3.74L31.62-3.74L31.62-3.74Q31.04-2.37 29.82-1.34L29.82-1.34L29.82-1.34Q27.39 0.77 22.02 0.77L22.02 0.77L22.02 0.77Q18.05 0.77 14.62 0.16ZM51.97 1.28L51.97 1.28L51.97 1.28Q37.89 1.28 37.89-11.97L37.89-11.97L37.89-11.97Q37.89-21.38 43.07-27.46L43.07-27.46L43.07-27.46Q48.58-33.92 58.11-33.92L58.11-33.92L58.11-33.92Q65.02-33.92 68.54-30.72L68.54-30.72L68.54-30.72Q72.06-27.52 72.06-20.80L72.06-20.80L72.06-20.80Q72.06-10.56 66.56-4.61L66.56-4.61L66.56-4.61Q61.18 1.28 51.97 1.28ZM53.63-26.56L53.63-26.56L53.63-26.56Q52.86-24.83 52.26-22.24L52.26-22.24L52.26-22.24Q51.65-19.65 50.88-15.55L50.88-15.55L50.88-15.55Q50.11-11.46 50.11-6.40L50.11-6.40L50.11-6.40Q50.11-4.74 50.66-3.65L50.66-3.65L50.66-3.65Q51.20-2.56 52.67-2.56L52.67-2.56L52.67-2.56Q54.14-2.56 55.07-3.26L55.07-3.26L55.07-3.26Q56-3.97 56.70-5.63L56.70-5.63L56.70-5.63Q57.98-8.58 59.01-14.05L59.01-14.05L59.01-14.05Q60.03-19.52 60.13-21.89L60.13-21.89L60.13-21.89Q60.22-24.26 60.22-26.02L60.22-26.02L60.22-26.02Q60.22-27.78 59.71-28.93L59.71-28.93L59.71-28.93Q59.20-30.08 57.76-30.08L57.76-30.08L57.76-30.08Q56.32-30.08 55.36-29.18L55.36-29.18L55.36-29.18Q54.40-28.29 53.63-26.56ZM101.76-10.82L101.76-10.82L101.76-10.82Q103.36-9.73 103.36-7.33L103.36-7.33L103.36-7.33Q103.36-4.93 102.14-3.39L102.14-3.39L102.14-3.39Q100.93-1.86 98.94-0.83L98.94-0.83L98.94-0.83Q94.85 1.28 90.43 1.28L90.43 1.28L90.43 1.28Q86.02 1.28 83.42 0.32L83.42 0.32L83.42 0.32Q80.83-0.64 79.10-2.43L79.10-2.43L79.10-2.43Q75.71-5.82 75.71-12.03L75.71-12.03L75.71-12.03Q75.71-21.70 80.96-27.58L80.96-27.58L80.96-27.58Q86.59-33.92 96.38-33.92L96.38-33.92L96.38-33.92Q102.46-33.92 105.47-31.36L105.47-31.36L105.47-31.36Q107.71-29.44 107.71-26.30L107.71-26.30L107.71-26.30Q107.71-15.04 88.26-15.04L88.26-15.04L88.26-15.04Q88-13.38 88-11.97L88-11.97L88-11.97Q88-9.02 89.31-7.90L89.31-7.90L89.31-7.90Q90.62-6.78 93.06-6.78L93.06-6.78L93.06-6.78Q95.49-6.78 98.08-7.90L98.08-7.90L98.08-7.90Q100.67-9.02 101.76-10.82ZM88.70-17.79L88.70-17.79L88.70-17.79Q93.25-17.79 95.87-20.61L95.87-20.61L95.87-20.61Q98.50-23.30 98.50-27.58L98.50-27.58L98.50-27.58Q98.50-29.06 97.95-29.86L97.95-29.86L97.95-29.86Q97.41-30.66 96.32-30.66L96.32-30.66L96.32-30.66Q95.23-30.66 94.30-30.24L94.30-30.24L94.30-30.24Q93.38-29.82 92.42-28.42L92.42-28.42L92.42-28.42Q90.05-25.22 88.70-17.79ZM126.40-30.34L126.40-30.34L126.40-30.34Q129.86-33.92 137.15-33.92L137.15-33.92L137.15-33.92Q141.18-33.92 143.39-31.78L143.39-31.78L143.39-31.78Q145.60-29.63 145.60-25.70L145.60-25.70L145.60-25.70Q145.60-21.76 143.39-18.98L143.39-18.98L143.39-18.98Q141.18-16.19 137.09-15.04L137.09-15.04L137.09-15.04Q137.41-13.76 137.86-12.42L137.86-12.42L138.75-9.86L138.75-9.86Q139.97-6.59 140.93-5.44L140.93-5.44L140.93-5.44Q141.89-4.29 143.17-3.90L143.17-3.90L143.17-3.90Q142.46-1.28 139.90 0.13L139.90 0.13L139.90 0.13Q137.86 1.28 135.04 1.28L135.04 1.28L135.04 1.28Q126.78 1.28 125.70-11.46L125.70-11.46L125.70-11.46Q125.50-13.25 125.50-15.04L125.50-15.04L125.50-15.04Q128.70-15.94 130.94-18.94L130.94-18.94L130.94-18.94Q133.18-21.95 133.18-25.47L133.18-25.47L133.18-25.47Q133.18-28.99 130.69-28.99L130.69-28.99L130.69-28.99Q128.90-28.99 127.49-27.01L127.49-27.01L127.49-27.01Q126.08-25.02 125.44-21.63L125.44-21.63L121.22 0L108.29 1.28L117.25-44.80L130.11-46.08L128.64-38.46L128.64-38.46Q127.68-33.09 126.40-30.34ZM174.46-10.82L174.46-10.82L174.46-10.82Q176.06-9.73 176.06-7.33L176.06-7.33L176.06-7.33Q176.06-4.93 174.85-3.39L174.85-3.39L174.85-3.39Q173.63-1.86 171.65-0.83L171.65-0.83L171.65-0.83Q167.55 1.28 163.14 1.28L163.14 1.28L163.14 1.28Q158.72 1.28 156.13 0.32L156.13 0.32L156.13 0.32Q153.54-0.64 151.81-2.43L151.81-2.43L151.81-2.43Q148.42-5.82 148.42-12.03L148.42-12.03L148.42-12.03Q148.42-21.70 153.66-27.58L153.66-27.58L153.66-27.58Q159.30-33.92 169.09-33.92L169.09-33.92L169.09-33.92Q175.17-33.92 178.18-31.36L178.18-31.36L178.18-31.36Q180.42-29.44 180.42-26.30L180.42-26.30L180.42-26.30Q180.42-15.04 160.96-15.04L160.96-15.04L160.96-15.04Q160.70-13.38 160.70-11.97L160.70-11.97L160.70-11.97Q160.70-9.02 162.02-7.90L162.02-7.90L162.02-7.90Q163.33-6.78 165.76-6.78L165.76-6.78L165.76-6.78Q168.19-6.78 170.78-7.90L170.78-7.90L170.78-7.90Q173.38-9.02 174.46-10.82ZM161.41-17.79L161.41-17.79L161.41-17.79Q165.95-17.79 168.58-20.61L168.58-20.61L168.58-20.61Q171.20-23.30 171.20-27.58L171.20-27.58L171.20-27.58Q171.20-29.06 170.66-29.86L170.66-29.86L170.66-29.86Q170.11-30.66 169.02-30.66L169.02-30.66L169.02-30.66Q167.94-30.66 167.01-30.24L167.01-30.24L167.01-30.24Q166.08-29.82 165.12-28.42L165.12-28.42L165.12-28.42Q162.75-25.22 161.41-17.79ZM209.66 1.28L209.66 1.28L209.66 1.28Q201.92 1.28 201.92-4.74L201.92-4.74L201.92-4.74Q201.98-6.40 202.50-9.22L202.50-9.22L203.65-15.10L203.65-15.10Q205.38-23.42 205.38-25.28L205.38-25.28L205.38-25.28Q205.38-28.99 203.20-28.99L203.20-28.99L203.20-28.99Q199.55-28.99 197.63-19.46L197.63-19.46L193.86 0L180.99 1.28L187.65-32.70L198.14-33.92L197.12-27.65L197.12-27.65Q200.13-33.92 209.34-33.92L209.34-33.92L209.34-33.92Q213.82-33.92 215.71-32.03L215.71-32.03L215.71-32.03Q217.60-30.14 217.60-25.92L217.60-25.92L217.60-25.92Q217.60-21.95 215.55-12.67L215.55-12.67L215.55-12.67Q214.59-8.51 214.59-6.94L214.59-6.94L214.59-6.94Q214.59-5.38 215.46-4.48L215.46-4.48L215.46-4.48Q216.32-3.58 217.60-3.46L217.60-3.46L217.60-3.46Q216.96-1.28 214.75 0L214.75 0L214.75 0Q212.54 1.28 209.66 1.28ZM277.44-26.56L277.44-26.56L277.44-26.56Q277.44 0.70 247.87 0.70L247.87 0.70L247.87 0.70Q243.14 0.70 235.33-0.45L235.33-0.45L242.50-38.27L242.50-38.27Q243.01-40.83 243.33-42.30L243.33-42.30L243.33-42.30Q253.06-43.01 257.38-43.01L257.38-43.01L257.38-43.01Q261.70-43.01 265.66-42.11L265.66-42.11L265.66-42.11Q269.63-41.22 272.26-39.23L272.26-39.23L272.26-39.23Q277.44-35.33 277.44-26.56ZM264.26-28.93L264.26-28.93L264.26-28.93Q264.26-38.46 257.41-38.46L257.41-38.46L256.77-38.46L256.77-38.46Q256.45-38.46 256.13-38.40L256.13-38.40L249.54-4.03L249.54-4.03Q249.79-3.90 250.05-3.90L250.05-3.90L250.56-3.90L250.56-3.90Q252.93-3.90 255.39-5.38L255.39-5.38L255.39-5.38Q257.86-6.85 259.78-9.86L259.78-9.86L259.78-9.86Q264.26-16.83 264.26-28.93ZM296.06-3.52L296.06-3.52L296.06-3.52Q294.08 1.28 287.74 1.28L287.74 1.28L287.74 1.28Q284.48 1.28 282.43-0.96L282.43-0.96L282.43-0.96Q280.70-2.94 280.70-4.93L280.70-4.93L280.70-4.93Q280.70-10.11 283.07-20.22L283.07-20.22L285.44-32.64L298.43-33.92L294.53-13.70L294.53-13.70Q293.44-8.96 293.44-7.30L293.44-7.30L293.44-7.30Q293.44-3.65 296.06-3.52ZM286.59-41.54L286.59-41.54L286.59-41.54Q286.59-44.03 288.67-45.38L288.67-45.38L288.67-45.38Q290.75-46.72 293.76-46.72L293.76-46.72L293.76-46.72Q296.77-46.72 298.59-45.38L298.59-45.38L298.59-45.38Q300.42-44.03 300.42-41.54L300.42-41.54L300.42-41.54Q300.42-39.04 298.40-37.76L298.40-37.76L298.40-37.76Q296.38-36.48 293.38-36.48L293.38-36.48L293.38-36.48Q290.37-36.48 288.48-37.76L288.48-37.76L288.48-37.76Q286.59-39.04 286.59-41.54ZM306.05-26.75L306.05-26.75L306.05-26.75Q308.22-29.82 311.52-31.87L311.52-31.87L311.52-31.87Q314.82-33.92 318.85-33.92L318.85-33.92L318.85-33.92Q322.88-33.92 324.80-32.64L324.80-32.64L337.34-33.92L332.99-9.34L332.99-9.34Q330.75 3.20 326.02 8.13L326.02 8.13L326.02 8.13Q321.47 12.80 312.64 12.80L312.64 12.80L312.64 12.80Q305.92 12.80 302.08 10.69L302.08 10.69L302.08 10.69Q298.24 8.58 298.24 5.06L298.24 5.06L298.24 5.06Q298.24 2.43 300.22 0.93L300.22 0.93L300.22 0.93Q302.21-0.58 305.28-0.58L305.28-0.58L305.28-0.58Q307.97-0.58 310.02 0.64L310.02 0.64L310.02 0.64Q311.23 1.28 311.81 2.18L311.81 2.18L311.81 2.18Q310.34 3.46 310.34 5.57L310.34 5.57L310.34 5.57Q310.34 8.32 312.90 8.32L312.90 8.32L312.90 8.32Q317.18 8.32 319.62-1.79L319.62-1.79L319.62-1.79Q320.32-4.54 320.90-7.30L320.90-7.30L320.90-7.30Q318.02-3.78 311.49-3.78L311.49-3.78L311.49-3.78Q306.94-3.78 304.32-5.95L304.32-5.95L304.32-5.95Q301.70-8.13 301.70-13.25L301.70-13.25L301.70-13.25Q301.70-16.45 302.78-20.06L302.78-20.06L302.78-20.06Q303.87-23.68 306.05-26.75ZM314.37-13.06L314.37-13.06L314.37-13.06Q314.37-8.70 316.61-8.70L316.61-8.70L316.61-8.70Q318.14-8.70 319.62-10.37L319.62-10.37L319.62-10.37Q320.77-11.71 321.22-13.70L321.22-13.70L324.48-30.14L324.48-30.14Q324.16-30.21 323.84-30.34L323.84-30.34L323.84-30.34Q323.20-30.59 322.37-30.59L322.37-30.59L322.37-30.59Q318.46-30.59 316.16-24.19L316.16-24.19L316.16-24.19Q314.37-19.20 314.37-13.06ZM355.20-3.52L355.20-3.52L355.20-3.52Q353.22 1.28 346.88 1.28L346.88 1.28L346.88 1.28Q343.62 1.28 341.57-0.96L341.57-0.96L341.57-0.96Q339.84-2.94 339.84-4.93L339.84-4.93L339.84-4.93Q339.84-10.11 342.21-20.22L342.21-20.22L344.58-32.64L357.57-33.92L353.66-13.70L353.66-13.70Q352.58-8.96 352.58-7.30L352.58-7.30L352.58-7.30Q352.58-3.65 355.20-3.52ZM345.73-41.54L345.73-41.54L345.73-41.54Q345.73-44.03 347.81-45.38L347.81-45.38L347.81-45.38Q349.89-46.72 352.90-46.72L352.90-46.72L352.90-46.72Q355.90-46.72 357.73-45.38L357.73-45.38L357.73-45.38Q359.55-44.03 359.55-41.54L359.55-41.54L359.55-41.54Q359.55-39.04 357.54-37.76L357.54-37.76L357.54-37.76Q355.52-36.48 352.51-36.48L352.51-36.48L352.51-36.48Q349.50-36.48 347.62-37.76L347.62-37.76L347.62-37.76Q345.73-39.04 345.73-41.54ZM361.66-6.40L361.66-6.40L361.66-6.40Q361.66-8.13 362.56-12.48L362.56-12.48L365.95-29.76L362.18-29.76L362.43-31.68L362.43-31.68Q370.11-33.98 377.54-39.62L377.54-39.62L380.61-39.62L379.07-32.64L384.06-32.64L383.49-29.76L378.56-29.76L375.30-12.48L375.30-12.48Q374.46-8.51 374.46-7.17L374.46-7.17L374.46-7.17Q374.46-4.10 377.15-3.46L377.15-3.46L377.15-3.46Q376.51-1.28 374.21 0L374.21 0L374.21 0Q371.90 1.28 368.64 1.28L368.64 1.28L368.64 1.28Q365.38 1.28 363.52-0.77L363.52-0.77L363.52-0.77Q361.66-2.82 361.66-6.40ZM386.27-1.92L386.27-1.92L386.27-1.92Q384.77-3.58 384.10-6.21L384.10-6.21L384.10-6.21Q383.42-8.83 383.42-13.12L383.42-13.12L383.42-13.12Q383.42-17.41 384.90-21.31L384.90-21.31L384.90-21.31Q386.37-25.22 389.06-28.03L389.06-28.03L389.06-28.03Q394.56-33.92 403.65-33.92L403.65-33.92L403.65-33.92Q406.91-33.92 409.28-32.83L409.28-32.83L420.22-33.92L415.49-8.96L415.49-8.96Q415.30-8.19 415.30-6.78L415.30-6.78L415.30-6.78Q415.30-5.38 416.16-4.48L416.16-4.48L416.16-4.48Q417.02-3.58 418.30-3.46L418.30-3.46L418.30-3.46Q417.66-1.28 415.33 0L415.33 0L415.33 0Q412.99 1.28 410.37 1.28L410.37 1.28L410.37 1.28Q407.74 1.28 405.98 0.29L405.98 0.29L405.98 0.29Q404.22-0.70 403.71-2.37L403.71-2.37L403.71-2.37Q402.69-0.77 400.51 0.26L400.51 0.26L400.51 0.26Q398.34 1.28 395.42 1.28L395.42 1.28L395.42 1.28Q392.51 1.28 390.14 0.51L390.14 0.51L390.14 0.51Q387.78-0.26 386.27-1.92ZM399.78-27.90L399.78-27.90L399.78-27.90Q399.04-26.75 398.40-24.80L398.40-24.80L398.40-24.80Q397.76-22.85 396.70-17.63L396.70-17.63L396.70-17.63Q395.65-12.42 395.65-8.70L395.65-8.70L395.65-8.70Q395.65-4.99 396.22-3.90L396.22-3.90L396.22-3.90Q396.80-2.82 397.82-2.82L397.82-2.82L397.82-2.82Q399.87-2.82 401.38-4.77L401.38-4.77L401.38-4.77Q402.88-6.72 403.46-10.18L403.46-10.18L406.85-28.93L406.85-28.93Q405.50-30.08 403.94-30.08L403.94-30.08L403.94-30.08Q402.37-30.08 401.44-29.57L401.44-29.57L401.44-29.57Q400.51-29.06 399.78-27.90ZM426.21-1.92L426.21-1.92L426.21-1.92Q424.70-3.58 424.03-6.21L424.03-6.21L424.03-6.21Q423.36-8.83 423.36-13.12L423.36-13.12L423.36-13.12Q423.36-17.41 424.83-21.31L424.83-21.31L424.83-21.31Q426.30-25.22 428.99-28.03L428.99-28.03L428.99-28.03Q434.50-33.92 443.58-33.92L443.58-33.92L443.58-33.92Q446.85-33.92 449.22-32.83L449.22-32.83L460.16-33.92L455.42-8.96L455.42-8.96Q455.23-8.19 455.23-6.78L455.23-6.78L455.23-6.78Q455.23-5.38 456.10-4.48L456.10-4.48L456.10-4.48Q456.96-3.58 458.24-3.46L458.24-3.46L458.24-3.46Q457.60-1.28 455.26 0L455.26 0L455.26 0Q452.93 1.28 450.30 1.28L450.30 1.28L450.30 1.28Q447.68 1.28 445.92 0.29L445.92 0.29L445.92 0.29Q444.16-0.70 443.65-2.37L443.65-2.37L443.65-2.37Q442.62-0.77 440.45 0.26L440.45 0.26L440.45 0.26Q438.27 1.28 435.36 1.28L435.36 1.28L435.36 1.28Q432.45 1.28 430.08 0.51L430.08 0.51L430.08 0.51Q427.71-0.26 426.21-1.92ZM439.71-27.90L439.71-27.90L439.71-27.90Q438.98-26.75 438.34-24.80L438.34-24.80L438.34-24.80Q437.70-22.85 436.64-17.63L436.64-17.63L436.64-17.63Q435.58-12.42 435.58-8.70L435.58-8.70L435.58-8.70Q435.58-4.99 436.16-3.90L436.16-3.90L436.16-3.90Q436.74-2.82 437.76-2.82L437.76-2.82L437.76-2.82Q439.81-2.82 441.31-4.77L441.31-4.77L441.31-4.77Q442.82-6.72 443.39-10.18L443.39-10.18L446.78-28.93L446.78-28.93Q445.44-30.08 443.87-30.08L443.87-30.08L443.87-30.08Q442.30-30.08 441.38-29.57L441.38-29.57L441.38-29.57Q440.45-29.06 439.71-27.90ZM478.91-3.52L478.91-3.52L478.91-3.52Q476.93 1.28 470.59 1.28L470.59 1.28L470.59 1.28Q467.39 1.28 465.34-0.96L465.34-0.96L465.34-0.96Q463.68-2.82 463.68-4.93L463.68-4.93L463.68-4.93Q463.68-9.73 465.92-20.22L465.92-20.22L470.59-44.80L483.58-46.08L477.38-13.70L477.38-13.70Q476.29-8.96 476.29-7.30L476.29-7.30L476.29-7.30Q476.29-3.65 478.91-3.52ZM504.13 0L497.09 0L504.77-42.24L518.53-42.24L528.51-13.18L533.82-42.24L540.93-42.18L533.12 0L518.46 0L509.25-27.97L504.13 0ZM557.89-3.52L557.89-3.52L557.89-3.52Q555.90 1.28 549.57 1.28L549.57 1.28L549.57 1.28Q546.30 1.28 544.26-0.96L544.26-0.96L544.26-0.96Q542.53-2.94 542.53-4.93L542.53-4.93L542.53-4.93Q542.53-10.11 544.90-20.22L544.90-20.22L547.26-32.64L560.26-33.92L556.35-13.70L556.35-13.70Q555.26-8.96 555.26-7.30L555.26-7.30L555.26-7.30Q555.26-3.65 557.89-3.52ZM548.42-41.54L548.42-41.54L548.42-41.54Q548.42-44.03 550.50-45.38L550.50-45.38L550.50-45.38Q552.58-46.72 555.58-46.72L555.58-46.72L555.58-46.72Q558.59-46.72 560.42-45.38L560.42-45.38L560.42-45.38Q562.24-44.03 562.24-41.54L562.24-41.54L562.24-41.54Q562.24-39.04 560.22-37.76L560.22-37.76L560.22-37.76Q558.21-36.48 555.20-36.48L555.20-36.48L555.20-36.48Q552.19-36.48 550.30-37.76L550.30-37.76L550.30-37.76Q548.42-39.04 548.42-41.54ZM589.25-10.82L589.25-10.82L589.25-10.82Q590.85-9.73 590.85-7.33L590.85-7.33L590.85-7.33Q590.85-4.93 589.63-3.39L589.63-3.39L589.63-3.39Q588.42-1.86 586.43-0.83L586.43-0.83L586.43-0.83Q582.34 1.28 577.92 1.28L577.92 1.28L577.92 1.28Q573.50 1.28 570.91 0.32L570.91 0.32L570.91 0.32Q568.32-0.64 566.59-2.43L566.59-2.43L566.59-2.43Q563.20-5.82 563.20-12.03L563.20-12.03L563.20-12.03Q563.20-21.70 568.45-27.58L568.45-27.58L568.45-27.58Q574.08-33.92 583.87-33.92L583.87-33.92L583.87-33.92Q589.95-33.92 592.96-31.36L592.96-31.36L592.96-31.36Q595.20-29.44 595.20-26.30L595.20-26.30L595.20-26.30Q595.20-15.04 575.74-15.04L575.74-15.04L575.74-15.04Q575.49-13.38 575.49-11.97L575.49-11.97L575.49-11.97Q575.49-9.02 576.80-7.90L576.80-7.90L576.80-7.90Q578.11-6.78 580.54-6.78L580.54-6.78L580.54-6.78Q582.98-6.78 585.57-7.90L585.57-7.90L585.57-7.90Q588.16-9.02 589.25-10.82ZM576.19-17.79L576.19-17.79L576.19-17.79Q580.74-17.79 583.36-20.61L583.36-20.61L583.36-20.61Q585.98-23.30 585.98-27.58L585.98-27.58L585.98-27.58Q585.98-29.06 585.44-29.86L585.44-29.86L585.44-29.86Q584.90-30.66 583.81-30.66L583.81-30.66L583.81-30.66Q582.72-30.66 581.79-30.24L581.79-30.24L581.79-30.24Q580.86-29.82 579.90-28.42L579.90-28.42L579.90-28.42Q577.54-25.22 576.19-17.79ZM617.92-2.69L617.92-2.69L617.92-2.69Q614.85 1.28 607.23 1.28L607.23 1.28L607.23 1.28Q603.26 1.28 600.38-1.12L600.38-1.12L600.38-1.12Q597.50-3.52 597.50-6.98L597.50-6.98L597.50-6.98Q597.50-8.90 597.70-9.86L597.70-9.86L601.98-32.64L614.98-33.92L610.30-9.22L610.30-9.22Q610.05-7.81 610.05-6.98L610.05-6.98L610.05-6.98Q610.05-3.26 612.29-3.26L612.29-3.26L612.29-3.26Q614.78-3.26 616.58-6.66L616.58-6.66L616.58-6.66Q617.15-7.74 617.41-9.15L617.41-9.15L621.95-32.64L634.56-33.92L629.82-8.96L629.82-8.96Q629.63-8 629.63-6.98L629.63-6.98L629.63-6.98Q629.63-5.95 630.21-4.83L630.21-4.83L630.21-4.83Q630.78-3.71 632.64-3.46L632.64-3.46L632.64-3.46Q632.26-1.92 630.91-0.90L630.91-0.90L630.91-0.90Q628.10 1.28 625.06 1.28L625.06 1.28L625.06 1.28Q622.02 1.28 620.22 0.19L620.22 0.19L620.22 0.19Q618.43-0.90 617.92-2.69ZM685.76-10.69L685.76-10.69Q681.54-4.86 677.47-1.79L677.47-1.79L677.47-1.79Q673.41 1.28 669.22 1.28L669.22 1.28L669.22 1.28Q665.02 1.28 663.55 0.45L663.55 0.45L663.55-13.63L663.55-13.63Q659.90-3.90 653.38-0.13L653.38-0.13L653.38-0.13Q651.01 1.28 648.77 1.28L648.77 1.28L648.77 1.28Q644.48 1.28 642.62 0.45L642.62 0.45L642.62 0.45Q642.18-14.21 641.79-18.27L641.79-18.27L641.79-18.27Q641.41-22.34 641.09-24.83L641.09-24.83L641.09-24.83Q640.45-29.82 638.27-31.87L638.27-31.87L638.27-31.87Q641.02-33.92 644.86-33.92L644.86-33.92L644.86-33.92Q652.29-33.92 653.31-24.70L653.31-24.70L653.31-24.70Q653.57-22.53 653.57-20.22L653.57-20.22L653.57-20.22Q653.57-16.77 652.80-4.74L652.80-4.74L652.80-4.74Q654.34-5.44 655.97-7.97L655.97-7.97L655.97-7.97Q657.60-10.50 658.94-13.95L658.94-13.95L658.94-13.95Q661.95-21.95 661.95-28.86L661.95-28.86L661.95-28.86Q661.95-29.95 661.66-31.10L661.66-31.10L661.66-31.10Q661.38-32.26 661.06-32.58L661.06-32.58L661.06-32.58Q663.30-33.92 666.72-33.92L666.72-33.92L666.72-33.92Q670.14-33.92 671.78-31.58L671.78-31.58L671.78-31.58Q673.41-29.25 673.86-24.96L673.86-24.96L673.86-24.96Q674.37-19.52 674.37-16.26L674.37-16.26L674.37-16.26Q674.37-11.71 673.92-4.99L673.92-4.99L673.92-4.99Q677.12-7.30 679.74-14.85L679.74-14.85L679.74-14.85Q682.37-22.40 682.37-27.78L682.37-27.78L682.37-27.78Q682.37-30.14 681.98-31.55L681.98-31.55L681.98-31.55Q684.10-33.92 687.74-33.92L687.74-33.92L687.74-33.92Q689.98-33.92 691.62-32.70L691.62-32.70L691.62-32.70Q693.25-31.49 693.25-29.22L693.25-29.22L693.25-29.22Q693.25-26.94 692.58-24.51L692.58-24.51L692.58-24.51Q691.90-22.08 690.82-19.58L690.82-19.58L690.82-19.58Q688.70-14.59 685.76-10.69L685.76-10.69ZM714.11-22.46L714.11-22.46L714.11-22.46Q715.01-24.83 715.01-26.88L715.01-26.88L715.01-26.88Q715.01-30.66 711.94-30.66L711.94-30.66L711.94-30.66Q710.34-30.66 709.02-29.22L709.02-29.22L709.02-29.22Q707.71-27.78 707.71-25.98L707.71-25.98L707.71-25.98Q707.71-24.70 708.74-23.68L708.74-23.68L708.74-23.68Q710.21-22.27 713.98-19.97L713.98-19.97L713.98-19.97Q717.76-17.66 719.20-15.78L719.20-15.78L719.20-15.78Q720.64-13.89 720.64-11.30L720.64-11.30L720.64-11.30Q720.64-8.70 719.39-6.34L719.39-6.34L719.39-6.34Q718.14-3.97 715.90-2.30L715.90-2.30L715.90-2.30Q711.10 1.28 703.42 1.28L703.42 1.28L703.42 1.28Q699.26 1.28 696.06-0.90L696.06-0.90L696.06-0.90Q692.86-3.01 692.86-5.50L692.86-5.50L692.86-5.50Q692.86-8 694.69-9.47L694.69-9.47L694.69-9.47Q696.51-10.94 699.20-10.94L699.20-10.94L699.20-10.94Q701.89-10.94 703.55-9.92L703.55-9.92L703.55-9.92Q702.72-7.81 702.72-6.40L702.72-6.40L702.72-6.40Q702.72-2.18 706.30-2.18L706.30-2.18L706.30-2.18Q707.84-2.18 708.86-3.14L708.86-3.14L708.86-3.14Q709.89-4.10 709.89-5.76L709.89-5.76L709.89-5.76Q709.89-9.02 704.38-12.48L704.38-12.48L704.38-12.48Q699.90-15.42 698.88-16.58L698.88-16.58L698.88-16.58Q697.15-18.62 697.15-21.18L697.15-21.18L697.15-21.18Q697.15-23.74 698.37-26.18L698.37-26.18L698.37-26.18Q699.58-28.61 701.82-30.34L701.82-30.34L701.82-30.34Q706.50-33.92 714.62-33.92L714.62-33.92L714.62-33.92Q718.78-33.92 721.25-32.26L721.25-32.26L721.25-32.26Q723.71-30.59 723.71-27.78L723.71-27.78L723.71-27.78Q723.71-24.96 722.02-23.36L722.02-23.36L722.02-23.36Q720.32-21.76 717.25-21.76L717.25-21.76L717.25-21.76Q715.14-21.76 714.11-22.46Z" fill="none" stroke="#dad69f" stroke-width="2.1"></path></g></g></g><style>text {
  font-size: 64px;
  font-family: Arial Black;
  dominant-baseline: central;
  text-anchor: middle;
}</style></svg>